<svg width="14" height="15" viewBox="0 0 14 15" fill="none" xmlns="http://www.w3.org/2000/svg">
<path d="M13.274 7.10659L7.38732 1.21992C7.14065 0.973252 6.80065 0.833252 6.44732 0.833252H1.66732C0.933984 0.833252 0.333984 1.43325 0.333984 2.16659V6.94659C0.333984 7.29992 0.473984 7.63992 0.727318 7.88659L6.61398 13.7733C7.13398 14.2933 7.98065 14.2933 8.50065 13.7733L13.2807 8.99325C13.8007 8.47325 13.8007 7.63325 13.274 7.10659ZM7.55398 12.8333L1.66732 6.94659V2.16659H6.44732L12.334 8.05325L7.55398 12.8333Z" fill="#646C80"/>
<path d="M3.33398 4.83325C3.88627 4.83325 4.33398 4.38554 4.33398 3.83325C4.33398 3.28097 3.88627 2.83325 3.33398 2.83325C2.7817 2.83325 2.33398 3.28097 2.33398 3.83325C2.33398 4.38554 2.7817 4.83325 3.33398 4.83325Z" fill="#646C80"/>
</svg>
