<svg width="15" height="13" viewBox="0 0 15 13" fill="none" xmlns="http://www.w3.org/2000/svg">
<path d="M8.6665 0.5C5.35317 0.5 2.6665 3.18667 2.6665 6.5H0.666504L3.25984 9.09333L3.3065 9.18667L5.99984 6.5H3.99984C3.99984 3.92 6.0865 1.83333 8.6665 1.83333C11.2465 1.83333 13.3332 3.92 13.3332 6.5C13.3332 9.08 11.2465 11.1667 8.6665 11.1667C7.37984 11.1667 6.21317 10.64 5.37317 9.79333L4.4265 10.74C5.51317 11.8267 7.0065 12.5 8.6665 12.5C11.9798 12.5 14.6665 9.81333 14.6665 6.5C14.6665 3.18667 11.9798 0.5 8.6665 0.5ZM7.99984 3.83333V7.16667L10.8532 8.86L11.3332 8.05333L8.99984 6.66667V3.83333H7.99984Z" fill="#9AA1B0"/>
</svg>
