<svg width="14" height="13" viewBox="0 0 14 13" fill="none" xmlns="http://www.w3.org/2000/svg">
<path d="M7.66667 9.1665V9.83317C7.66667 10.3636 7.45595 10.8723 7.08088 11.2474C6.70581 11.6225 6.1971 11.8332 5.66667 11.8332H3C2.46957 11.8332 1.96086 11.6225 1.58579 11.2474C1.21071 10.8723 1 10.3636 1 9.83317V3.1665C1 2.63607 1.21071 2.12736 1.58579 1.75229C1.96086 1.37722 2.46957 1.1665 3 1.1665H5.66667C6.1971 1.1665 6.70581 1.37722 7.08088 1.75229C7.45595 2.12736 7.66667 2.63607 7.66667 3.1665V3.83317M10.3333 9.1665L13 6.49984L10.3333 9.1665ZM13 6.49984L10.3333 3.83317L13 6.49984ZM13 6.49984H3.66667H13Z" stroke="#9AA1B0" stroke-linecap="round" stroke-linejoin="round"/>
</svg>
