<svg width="12" height="13" viewBox="0 0 12 13" fill="none" xmlns="http://www.w3.org/2000/svg">
<path d="M4.00016 1.83333H2.66683C2.31321 1.83333 1.97407 1.97381 1.72402 2.22386C1.47397 2.47391 1.3335 2.81304 1.3335 3.16667V11.1667C1.3335 11.5203 1.47397 11.8594 1.72402 12.1095C1.97407 12.3595 2.31321 12.5 2.66683 12.5H9.3335C9.68712 12.5 10.0263 12.3595 10.2763 12.1095C10.5264 11.8594 10.6668 11.5203 10.6668 11.1667V3.16667C10.6668 2.81304 10.5264 2.47391 10.2763 2.22386C10.0263 1.97381 9.68712 1.83333 9.3335 1.83333H8.00016M4.00016 1.83333C4.00016 2.18696 4.14064 2.52609 4.39069 2.77614C4.64074 3.02619 4.97987 3.16667 5.3335 3.16667H6.66683C7.02045 3.16667 7.35959 3.02619 7.60964 2.77614C7.85969 2.52609 8.00016 2.18696 8.00016 1.83333M4.00016 1.83333C4.00016 1.47971 4.14064 1.14057 4.39069 0.890524C4.64074 0.640476 4.97987 0.5 5.3335 0.5H6.66683C7.02045 0.5 7.35959 0.640476 7.60964 0.890524C7.85969 1.14057 8.00016 1.47971 8.00016 1.83333M6.00016 6.5H8.00016M6.00016 9.16667H8.00016M4.00016 6.5H4.00683M4.00016 9.16667H4.00683" stroke="#9AA1B0" stroke-linecap="round" stroke-linejoin="round"/>
</svg>
