<svg width="10" height="10" viewBox="0 0 10 10" fill="none" xmlns="http://www.w3.org/2000/svg">
<path fill-rule="evenodd" clip-rule="evenodd" d="M5 0.00012207C5.26522 0.00012207 5.51957 0.105479 5.70711 0.293015C5.89464 0.480552 6 0.734906 6 1.00012V4.00012H9C9.26522 4.00012 9.51957 4.10548 9.70711 4.29302C9.89464 4.48055 10 4.73491 10 5.00012C10 5.26534 9.89464 5.51969 9.70711 5.70723C9.51957 5.89477 9.26522 6.00012 9 6.00012H6V9.00012C6 9.26534 5.89464 9.51969 5.70711 9.70723C5.51957 9.89477 5.26522 10.0001 5 10.0001C4.73478 10.0001 4.48043 9.89477 4.29289 9.70723C4.10536 9.51969 4 9.26534 4 9.00012V6.00012H1C0.734784 6.00012 0.48043 5.89477 0.292893 5.70723C0.105357 5.51969 0 5.26534 0 5.00012C0 4.73491 0.105357 4.48055 0.292893 4.29302C0.48043 4.10548 0.734784 4.00012 1 4.00012H4V1.00012C4 0.734906 4.10536 0.480552 4.29289 0.293015C4.48043 0.105479 4.73478 0.00012207 5 0.00012207V0.00012207Z" fill="#336DF2"/>
</svg>
