<svg width="9" height="15" viewBox="0 0 9 15" fill="none" xmlns="http://www.w3.org/2000/svg">
<path d="M3.176 13.0001H0.0400001V1.81612H3.176V0.168121H4.6V1.81612H5.176C6.168 1.81612 6.936 2.07212 7.48 2.58412C8.024 3.09612 8.296 3.84279 8.296 4.82412C8.296 5.37879 8.16267 5.86946 7.896 6.29612C7.64 6.71212 7.29867 7.02145 6.872 7.22412C8.06667 7.57612 8.664 8.44546 8.664 9.83212C8.664 10.4828 8.52 11.0481 8.232 11.5281C7.95467 11.9975 7.57067 12.3601 7.08 12.6161C6.58933 12.8721 6.04533 13.0001 5.448 13.0001H4.6V14.6481H3.176V13.0001ZM3.176 6.61612V3.14412H1.672V6.61612H3.176ZM4.968 6.61612C5.49067 6.61612 5.90133 6.47212 6.2 6.18412C6.49867 5.89612 6.648 5.46946 6.648 4.90412C6.648 4.25345 6.49867 3.80012 6.2 3.54412C5.912 3.27745 5.464 3.14412 4.856 3.14412H4.6V6.61612H4.968ZM3.176 11.6721V7.96012H1.672V11.6721H3.176ZM5.08 11.6721C5.70933 11.6721 6.18933 11.5335 6.52 11.2561C6.85067 10.9788 7.016 10.5041 7.016 9.83212C7.016 9.16012 6.84 8.68012 6.488 8.39212C6.14667 8.10412 5.62933 7.96012 4.936 7.96012H4.6V11.6721H5.08Z" fill="#9AA1B0"/>
</svg>
